<svg width="35" height="35" viewBox="0 0 35 35" fill="none" xmlns="http://www.w3.org/2000/svg">
<path d="M34.2757 10.5719C34.2568 9.15177 33.9909 7.74581 33.4901 6.41686C33.0557 5.29589 32.3923 4.27785 31.5423 3.42779C30.6922 2.57772 29.6742 1.91433 28.5532 1.47998C27.2413 0.987525 25.8554 0.721245 24.4544 0.692481C22.6507 0.611856 22.0788 0.589355 17.5001 0.589355C12.9213 0.589355 12.3344 0.589356 10.5438 0.692481C9.14349 0.721457 7.75822 0.987733 6.44695 1.47998C5.3258 1.91402 4.30761 2.57731 3.45751 3.42742C2.6074 4.27752 1.94411 5.29571 1.51007 6.41686C1.01663 7.72773 0.750927 9.11331 0.724446 10.5137C0.643821 12.3194 0.619446 12.8912 0.619446 17.47C0.619446 22.0487 0.619446 22.6337 0.724446 24.4262C0.752571 25.8287 1.01695 27.2125 1.51007 28.5269C1.94484 29.6477 2.60863 30.6654 3.45901 31.5152C4.3094 32.3649 5.32769 33.0279 6.44882 33.4619C7.75651 33.9741 9.14202 34.2594 10.5457 34.3056C12.3513 34.3862 12.9232 34.4106 17.5019 34.4106C22.0807 34.4106 22.6676 34.4106 24.4582 34.3056C25.8591 34.278 27.2451 34.0124 28.5569 33.52C29.6776 33.0851 30.6954 32.4216 31.5454 31.5716C32.3954 30.7216 33.059 29.7038 33.4938 28.5831C33.9869 27.2706 34.2513 25.8869 34.2794 24.4825C34.3601 22.6787 34.3844 22.1069 34.3844 17.5262C34.3807 12.9475 34.3807 12.3662 34.2757 10.5719ZM17.4888 26.1287C12.7001 26.1287 8.82069 22.2494 8.82069 17.4606C8.82069 12.6719 12.7001 8.79248 17.4888 8.79248C19.7878 8.79248 21.9925 9.70573 23.6181 11.3313C25.2437 12.9569 26.1569 15.1617 26.1569 17.4606C26.1569 19.7595 25.2437 21.9643 23.6181 23.5899C21.9925 25.2155 19.7878 26.1287 17.4888 26.1287ZM26.5019 10.4931C26.2364 10.4934 25.9735 10.4412 25.7282 10.3398C25.4828 10.2383 25.2599 10.0894 25.0722 9.90165C24.8844 9.71391 24.7355 9.49099 24.6341 9.24565C24.5326 9.00031 24.4804 8.73736 24.4807 8.47186C24.4807 8.20654 24.533 7.94383 24.6345 7.69872C24.736 7.4536 24.8848 7.23088 25.0724 7.04328C25.26 6.85568 25.4828 6.70686 25.7279 6.60533C25.973 6.5038 26.2357 6.45154 26.501 6.45154C26.7663 6.45154 27.029 6.5038 27.2741 6.60533C27.5193 6.70686 27.742 6.85568 27.9296 7.04328C28.1172 7.23088 28.266 7.4536 28.3675 7.69872C28.4691 7.94383 28.5213 8.20654 28.5213 8.47186C28.5213 9.58936 27.6176 10.4931 26.5019 10.4931Z" fill="#CCCCCC"/>
</svg>
