<svg width="40" height="39" viewBox="0 0 40 39" fill="none" xmlns="http://www.w3.org/2000/svg">
<path d="M14.3267 37.3875C16.1667 37.9313 18.0259 38.25 20 38.25C25.0834 38.25 29.9585 36.2746 33.5529 32.7583C37.1474 29.2419 39.1667 24.4728 39.1667 19.5C39.1667 17.0377 38.671 14.5995 37.7077 12.3247C36.7445 10.0498 35.3327 7.98285 33.5529 6.24175C31.7731 4.50065 29.6602 3.11953 27.3348 2.17726C25.0094 1.23498 22.517 0.75 20 0.75C17.483 0.75 14.9907 1.23498 12.6653 2.17726C10.3399 3.11953 8.22695 4.50065 6.44716 6.24175C2.85271 9.75805 0.833374 14.5272 0.833374 19.5C0.833374 27.4688 5.95087 34.3125 13.1767 37.0125C13.0042 35.55 12.8317 33.1312 13.1767 31.4625L15.3809 22.2C15.3809 22.2 14.825 21.1125 14.825 19.3875C14.825 16.8 16.4734 14.8687 18.3517 14.8687C20 14.8687 20.7667 16.05 20.7667 17.5688C20.7667 19.1812 19.6742 21.4875 19.1184 23.7C18.7925 25.5375 20.115 27.15 22.0317 27.15C25.4434 27.15 28.0884 23.5875 28.0884 18.5625C28.0884 14.0625 24.7917 10.9875 20.0575 10.9875C14.6525 10.9875 11.4709 14.925 11.4709 19.0688C11.4709 20.6813 12.0075 22.3125 12.8892 23.3812C13.0617 23.4937 13.0617 23.6437 13.0042 23.925L12.4484 25.9688C12.4484 26.2875 12.2375 26.4 11.9117 26.175C9.45837 25.125 8.04004 21.7125 8.04004 18.9562C8.04004 13.0312 12.3334 7.65 20.6134 7.65C27.2067 7.65 32.3434 12.2813 32.3434 18.4313C32.3434 24.8813 28.2609 30.0562 22.415 30.0562C20.5559 30.0562 18.735 29.0812 18.0834 27.9375L16.7992 32.3813C16.3584 33.9938 15.1509 36.15 14.3267 37.4437V37.3875Z" fill="#CCCCCC"/>
</svg>
