<svg width="39" height="31" viewBox="0 0 39 31" fill="none" xmlns="http://www.w3.org/2000/svg">
<path d="M34.63 7.99452C34.6549 8.32264 34.6549 8.64889 34.6549 8.97514C34.6549 18.9595 26.8866 30.4645 12.6899 30.4645C8.31604 30.4645 4.25271 29.2251 0.833374 27.0726C1.45437 27.142 2.05237 27.1664 2.69829 27.1664C6.17319 27.1746 9.54969 26.0379 12.2835 23.9395C10.6724 23.911 9.11064 23.391 7.81625 22.4521C6.52185 21.5133 5.55946 20.2024 5.06346 18.7026C5.54071 18.772 6.01987 18.8189 6.52204 18.8189C7.21396 18.8189 7.90971 18.7251 8.55562 18.562C6.80716 18.2167 5.23495 17.2895 4.10631 15.9383C2.97767 14.5871 2.36229 12.8951 2.36479 11.1501V11.0564C3.39404 11.617 4.58812 11.9676 5.85312 12.0145C4.79338 11.3256 3.92442 10.3908 3.32378 9.2935C2.72313 8.19619 2.40947 6.9705 2.41079 5.72577C2.41079 4.32327 2.79221 3.03702 3.46112 1.91577C5.40106 4.25018 7.82059 6.15995 10.563 7.52138C13.3054 8.88281 16.3096 9.66555 19.381 9.81889C19.2621 9.25639 19.1893 8.67327 19.1893 8.08827C19.1888 7.09632 19.3881 6.114 19.7759 5.19747C20.1637 4.28093 20.7324 3.44816 21.4494 2.74674C22.1664 2.04533 23.0177 1.48904 23.9546 1.10966C24.8915 0.73029 25.8956 0.535275 26.9096 0.535768C29.133 0.535768 31.1397 1.44702 32.5504 2.92077C34.2788 2.5938 35.9362 1.97656 37.4494 1.09639C36.8732 2.84167 35.6664 4.32159 34.055 5.25889C35.5879 5.08785 37.086 4.69349 38.4997 4.08889C37.4439 5.5947 36.1355 6.91516 34.63 7.99452Z" fill="#CCCCCC"/>
</svg>
