<svg width="35" height="35" viewBox="0 0 35 35" fill="none" xmlns="http://www.w3.org/2000/svg">
<path d="M32.5 0.625H2.5C2.00272 0.625 1.52581 0.822544 1.17417 1.17417C0.822544 1.52581 0.625 2.00272 0.625 2.5V32.5C0.625 32.9973 0.822544 33.4742 1.17417 33.8258C1.52581 34.1775 2.00272 34.375 2.5 34.375H32.5C32.9973 34.375 33.4742 34.1775 33.8258 33.8258C34.1775 33.4742 34.375 32.9973 34.375 32.5V2.5C34.375 2.00272 34.1775 1.52581 33.8258 1.17417C33.4742 0.822544 32.9973 0.625 32.5 0.625ZM10.6356 29.3819H5.62563V13.2756H10.6356V29.3819ZM8.13063 11.0763C7.36083 11.0763 6.62257 10.7705 6.07825 10.2261C5.53392 9.6818 5.22813 8.94354 5.22813 8.17375C5.22813 7.40396 5.53392 6.6657 6.07825 6.12137C6.62257 5.57705 7.36083 5.27125 8.13063 5.27125C8.90042 5.27125 9.63868 5.57705 10.183 6.12137C10.7273 6.6657 11.0331 7.40396 11.0331 8.17375C11.0331 8.94354 10.7273 9.6818 10.183 10.2261C9.63868 10.7705 8.90042 11.0763 8.13063 11.0763ZM29.3838 29.3819H24.3794V21.55C24.3794 19.6825 24.3456 17.2806 21.7769 17.2806C19.1706 17.2806 18.775 19.3169 18.775 21.4188V29.3838H13.7744V13.2775H18.5744V15.4788H18.6438C19.3094 14.2131 20.9444 12.8781 23.3763 12.8781C28.4463 12.8781 29.3819 16.2119 29.3819 20.5506V29.3819H29.3838Z" fill="#CCCCCC"/>
</svg>
