<svg width="40" height="38" viewBox="0 0 40 38" fill="none" xmlns="http://www.w3.org/2000/svg">
<path fill-rule="evenodd" clip-rule="evenodd" d="M20.0495 0.75C9.4906 0.75 0.932678 9.12187 0.932678 19.4512C0.932678 27.7125 6.4086 34.7231 14.0063 37.1981C14.9627 37.3669 15.3077 36.7912 15.3077 36.2962C15.3077 35.8519 15.2923 34.6744 15.2866 33.1162C9.96785 34.245 8.84468 30.6075 8.84468 30.6075C7.97834 28.4475 6.72293 27.8719 6.72293 27.8719C4.98835 26.7112 6.85518 26.7375 6.85518 26.7375C8.77568 26.8687 9.78193 28.665 9.78193 28.665C11.4878 31.5225 14.2593 30.6975 15.3441 30.2194C15.5185 29.01 16.0168 28.185 16.5612 27.7181C12.3177 27.2475 7.85568 25.6425 7.85568 18.4744C7.85568 16.4362 8.60126 14.7637 9.81835 13.4587C9.62476 12.9844 8.96351 11.0812 10.0081 8.50875C10.0081 8.50875 11.6123 8.00437 15.2636 10.4231C16.823 10.0081 18.4315 9.7963 20.0476 9.79312C21.6637 9.79569 23.2723 10.0075 24.8316 10.4231C28.4848 8.0025 30.0871 8.50875 30.0871 8.50875C31.1317 11.0812 30.4762 12.9844 30.2768 13.4587C31.5035 14.7637 32.2395 16.4344 32.2395 18.4744C32.2395 25.6612 27.7737 27.24 23.5148 27.7031C24.1953 28.2806 24.8086 29.4206 24.8086 31.1644C24.8086 33.6656 24.7856 35.6831 24.7856 36.2962C24.7856 36.7969 25.1268 37.3781 26.1023 37.1944C33.6962 34.7156 39.1663 27.7106 39.1663 19.4512C39.1663 9.12187 30.6084 0.75 20.0495 0.75Z" fill="#CCCCCC"/>
</svg>
